<?xml version="1.0" encoding="UTF-8"?><svg id="Layer_2" xmlns="http://www.w3.org/2000/svg" viewBox="0 0 1899.57 1066.65"><defs><style>.cls-1{fill:#fff;}.cls-2{opacity:.2;}.cls-3{fill:#385a65;}.cls-4{opacity:.3;}.cls-5{fill:#192e35;}.cls-6{fill:#f0525f;}</style></defs><g id="Layer_1-2"><g><g><g><g><path class="cls-6" d="M1725.21,243.58l112.13,50.39s-175.15,249.66-211.34,289.86c-36.18,40.2-389.86,90.22-389.86,90.22l-16.92-147.9,301.52-51.35,204.47-231.23Z"/><path class="cls-1" d="M1609.93,595.64c-.71,.07-1.45-8.85-5.27-22.61-1.85-6.89-4.78-14.88-8.67-23.45-4.05-8.49-9.16-17.52-15.5-26.34-6.45-8.74-13.49-16.36-20.34-22.82-6.97-6.32-13.68-11.55-19.68-15.43-11.93-7.85-20.2-11.29-19.91-11.94,.1-.24,2.22,.46,6,1.94,3.81,1.41,9.1,4.02,15.35,7.72,6.29,3.65,13.33,8.78,20.6,15.1,7.14,6.46,14.44,14.22,21.06,23.18,6.51,9.04,11.65,18.35,15.62,27.13,3.8,8.85,6.52,17.12,8.08,24.23,1.61,7.08,2.48,12.92,2.66,16.98,.26,4.05,.27,6.29,.01,6.31Z"/><path class="cls-1" d="M1586.79,539.22c.07,.25-3.94,1.61-11.25,3.84-7.31,2.25-17.94,5.29-31.13,8.87-26.37,7.17-63.04,16.28-103.86,24.87-40.84,8.58-78.07,15.01-105.1,19.07-13.51,2.03-24.47,3.53-32.07,4.42-7.59,.9-11.8,1.27-11.84,1.01s4.1-1.13,11.62-2.48c8.17-1.44,18.9-3.33,31.85-5.61,26.89-4.73,63.98-11.57,104.75-20.14,40.75-8.58,77.45-17.25,103.97-23.75,12.77-3.13,23.35-5.72,31.41-7.69,7.43-1.79,11.57-2.67,11.64-2.41Z"/><path class="cls-1" d="M1753.75,259.83c.79,.7-44.57,53.32-101.3,117.51-56.75,64.22-103.38,115.7-104.17,115-.79-.7,44.56-53.3,101.31-117.52,56.73-64.2,103.37-115.69,104.16-114.99Z"/><path class="cls-1" d="M1611.19,437.47c1.76-1.14,4.52,.22,4.69,2.31,.17,2.09-2.32,3.88-4.25,3.05-1.92-.83-2.32-3.88-.68-5.18"/><path class="cls-1" d="M1427.59,556.47c1.76-1.14,4.52,.22,4.69,2.31,.17,2.09-2.32,3.88-4.25,3.05-1.92-.83-2.32-3.88-.68-5.18"/><path class="cls-1" d="M1515.87,536.91c1.76-1.14,4.52,.22,4.69,2.31,.17,2.09-2.32,3.88-4.25,3.05-1.92-.83-2.32-3.88-.68-5.18"/><path class="cls-1" d="M1661.29,381.26c1.76-1.14,4.52,.22,4.69,2.31,.17,2.09-2.32,3.88-4.25,3.05-1.92-.83-2.32-3.88-.68-5.18"/><path class="cls-1" d="M1713.79,321.73c1.76-1.14,4.52,.22,4.69,2.31,.17,2.09-2.32,3.88-4.25,3.05-1.92-.83-2.32-3.88-.68-5.18"/><g class="cls-4"><path class="cls-1" d="M1503.09,489.83c.84,5.19-44.63,16.86-101.55,26.07-56.94,9.21-103.76,12.47-104.6,7.28-.84-5.19,44.62-16.86,101.56-26.07,56.92-9.21,103.75-12.47,104.59-7.28Z"/></g></g><path class="cls-1" d="M1351.15,570.15c1.76-1.14,4.52,.22,4.69,2.31,.17,2.09-2.32,3.88-4.25,3.05-1.92-.83-2.32-3.88-.68-5.18"/></g><path class="cls-5" d="M1187.63,504.75c30.11-11.2,66.24,.64,86.72,25.4,20.48,24.75,25.82,60.15,17.14,91.08-8.68,30.93-49.93,72.71-77.85,84.34"/><path class="cls-6" d="M1866.99,259.83c9.14-12.77,18.35-25.65,24.71-40.01,6.37-14.36,9.77-30.47,6.76-45.88-3.02-15.41-13.24-29.88-27.94-35.4-14.7-5.52-33.46-.2-41.04,13.55l29.76-58.86c3.64-7.2,7.19-16.26,2.48-22.82-4.38-6.09-13.98-6.08-20.28-2.01-6.3,4.07-10.08,10.97-13.61,17.59-14.68,27.52-29.36,55.03-44.04,82.55-12.96-20.29-25.91-40.58-38.87-60.87-3.93-6.16-9.57-13.14-16.79-12.01-5.78,.91-9.51,7.13-9.64,12.98-.13,5.85,2.42,11.39,4.92,16.68,11.35,24.04,31.92,78.58,31.92,78.58l111.65,55.94Z"/><path class="cls-3" d="M1213.64,701.37c-.6-.61,10.01-8.68,22.75-25.42,6.25-8.38,12.81-19.17,16.97-32.32,4.38-13.08,5.66-28.4,4.48-44.34-2.15-32.06-14.37-59.37-25.9-76.77-5.6-8.91-11.39-15.17-16.36-18.17-4.94-3.05-8.36-3.23-8.28-3.61,.01-.11,.85-.17,2.43,.06,1.58,.22,3.88,.86,6.59,2.26,5.48,2.75,11.89,9.11,17.85,17.95,12.31,17.31,25.26,45.15,27.46,78.01,1.22,16.27-.21,32.21-4.94,45.71-4.5,13.57-11.51,24.53-18.17,32.87-6.66,8.39-13.02,14.29-17.52,18.17-4.51,3.89-7.21,5.77-7.36,5.6Z"/><path class="cls-5" d="M1725.21,243.58c36.73,22.68,56.14,33.46,95.29,51.64,13.09,6.08,29.31,11.67,41.06,3.3,8.49-6.05,11.31-17.91,9.08-28.1-2.23-10.19-8.6-18.97-15.53-26.76-21.31-23.94-49.57-41.63-80.42-50.34-11.01-3.11-22.69-5.09-33.86-2.63-11.17,2.46-21.75,10.15-24.95,21.13-3.2,10.98-1.53,24.53,9.33,31.77"/><path class="cls-3" d="M1865.93,284.68c-.61,.33-4.87-8.72-14.74-21.18-9.75-12.43-25.91-27.95-47.62-38.64-21.71-10.7-43.87-14.04-59.67-14.19-15.9-.22-25.66,1.91-25.77,1.23-.05-.23,2.33-1,6.75-1.9,4.42-.91,10.92-1.79,19.01-2.02,16.09-.55,38.99,2.45,61.36,13.47,22.36,11.01,38.7,27.33,48.08,40.43,4.75,6.56,8.02,12.24,9.99,16.3,1.98,4.05,2.82,6.41,2.61,6.51Z"/></g><g><path class="cls-6" d="M868.98,11.03s-241.24,44.61-238.2,260.58c3.04,215.97,207.34,179.69,266.66,172.09,26.9-3.45,80.51-11.06,131.07-18.36,107.27-15.47,187.31-67.64,193.67-175.83,.74-12.62,.41-25.35-1.28-38.05-15.21-114.2-121.67-251.64-351.92-200.43Z"/><path class="cls-5" d="M1129.29,227.6l-307.84,65.32c-32.27,6.85-63.97-13.76-70.82-46.03h0c-6.85-32.27,13.76-63.97,46.03-70.82l307.84-65.32c32.27-6.85,63.97,13.76,70.82,46.03h0c6.85,32.27-13.76,63.97-46.03,70.82Z"/><circle class="cls-1" cx="863.03" cy="228.1" r="19.17"/><circle class="cls-1" cx="1078.08" cy="182.39" r="19.17"/><path class="cls-1" d="M962.98,125.02c-.53,.22-4.2-8.25-10.3-21.76-6.03-13.52-15.55-31.66-29.93-49.01-14.09-17.5-31.35-29.1-45.15-33.96-13.79-5.07-23.18-5.1-23.1-5.85,0-.24,2.32-.39,6.52-.16,4.18,.29,10.26,1.17,17.46,3.47,14.48,4.34,32.77,16.12,47.21,34.09,14.66,17.67,24.05,36.51,29.46,50.37,2.78,6.93,4.81,12.6,6.14,16.55,1.33,3.95,1.94,6.18,1.69,6.28Z"/><path class="cls-1" d="M970.71,433.61c-.48-.47,6.44-7.12,14.93-19.82,8.42-12.63,17.97-31.94,21.17-54.97,2.6-23.09,1.95-44.44-.49-59.52-2.29-15.18-3.87-24.62-3.3-24.72,.26-.05,.97,2.24,2.02,6.42,1.05,4.19,2.48,10.26,3.93,17.87,3.15,15.23,4.28,36.84,1.61,60.48-3.3,23.78-13.57,43.5-22.72,55.98-4.59,6.29-8.88,10.92-11.95,13.97-3.14,2.99-5.01,4.49-5.19,4.32Z"/><g class="cls-4"><path d="M1194.76,339.79c-27.69-18.06-60.84-26.44-93.83-28.52-32.99-2.08-66.05,1.85-98.74,6.77-75.59,11.38-152.96,29.23-214.17,75.02-17.26,12.91-33.44,28.56-41.36,48.61,0,0,32.45,13.36,97.2,9.04,64.75-4.32,198.37-27.57,198.37-27.57,0,0,68.32-11.53,106.93-40.38,38.61-28.85,45.6-42.96,45.6-42.96Z"/></g><path class="cls-1" d="M1194.02,150.72s1.62,3.64,2.76,11.08c1.08,7.36,1.63,18.84-2.95,32.52-4.43,13.57-15.12,28.93-32.68,39.52-17.46,10.79-40.2,16.67-64.95,21.95-49.65,10.86-108.67,23.78-174.18,38.11-16.39,3.57-33.2,7.23-50.36,10.96-17.2,3.53-34.54,8.11-52.88,10.48-18.11,2.39-38.33,1.07-55.03-9.37-16.44-10.3-28.79-27.18-33.88-46.36-5.25-19.19-2.52-40.01,6.65-57,9.09-17.08,24.12-30.35,41.23-37.74,8.59-3.86,17.71-5.55,26.33-7.63,8.73-2.04,17.37-4.07,25.92-6.07,17.1-4,33.84-7.92,50.18-11.74,32.67-7.62,63.72-14.87,92.79-21.65,29.19-6.26,55.78-14.47,80.78-19.47,12.48-2.52,24.54-4.22,36.01-4.91,11.44-.82,22.42-.56,32.45,1.11,20.16,3.09,36.41,11.07,47.62,19.91,11.16,9.08,17.21,18.78,20.29,25.57,1.73,3.34,2.47,6.13,3.09,7.94,.59,1.83,.86,2.77,.8,2.79-.29,.11-1.23-3.76-4.58-10.39-3.27-6.61-9.44-16-20.52-24.74-11.15-8.5-27.18-16.13-47.03-18.97-9.9-1.54-20.61-1.71-31.96-.8-11.35,.78-23.27,2.54-35.64,5.13-24.76,5.13-51.36,13.5-80.52,19.89-29.05,6.89-60.08,14.25-92.73,22-16.33,3.86-33.07,7.82-50.17,11.87-8.55,2.02-17.19,4.06-25.91,6.12-8.76,2.13-17.59,3.78-25.72,7.47-16.37,7.1-30.73,19.82-39.38,36.11-8.73,16.18-11.31,35.98-6.32,54.22,4.83,18.26,16.66,34.38,32.19,44.13,15.71,9.83,34.84,11.2,52.6,8.89,17.9-2.28,35.36-6.83,52.55-10.33,17.17-3.69,33.98-7.31,50.38-10.84,65.58-14.04,124.66-26.68,174.36-37.31,24.77-5.1,47.23-10.76,64.41-21.14,17.25-10.17,27.83-24.98,32.39-38.19,4.7-13.31,4.42-24.62,3.59-31.93-.88-7.39-2.22-11.13-2-11.18Z"/><path class="cls-1" d="M634.15,307.36c-.3-.38,4.03-4.51,11.76-10.3,7.72-5.79,18.98-13.08,32.23-19.6,13.27-6.5,25.93-10.94,35.23-13.51,9.31-2.58,15.23-3.47,15.34-3,.32,1.17-22.77,7.04-48.89,19.93-26.17,12.78-44.94,27.46-45.67,26.49Z"/><path class="cls-1" d="M884.8,41.27c1.76-1.14,4.52,.22,4.69,2.31,.17,2.09-2.32,3.88-4.25,3.05-1.92-.83-2.32-3.88-.68-5.18"/><path class="cls-1" d="M923.08,97.17c1.76-1.14,4.52,.22,4.69,2.31,.17,2.09-2.32,3.88-4.25,3.05-1.92-.83-2.32-3.88-.68-5.18"/><path class="cls-1" d="M691.57,253.64c1.76-1.14,4.52,.22,4.69,2.31,.17,2.09-2.32,3.88-4.25,3.05-1.92-.83-2.32-3.88-.68-5.18"/><path class="cls-1" d="M643.76,279.26c1.76-1.14,4.52,.22,4.69,2.31,.17,2.09-2.32,3.88-4.25,3.05-1.92-.83-2.32-3.88-.68-5.18"/><g class="cls-4"><path class="cls-1" d="M934.16,14.53c.58,2.74-21.15,8.95-55.43,19.92-34.04,11.13-81.33,27.52-125.03,58.76-21.53,15.68-39.58,33.91-53.35,52.42-13.71,18.56-23.42,37.15-29.26,53.62-11.98,33.03-10.5,55.91-13.76,55.98-1.19,.09-2.96-5.47-3.78-15.91-.89-10.42,0-25.77,4.69-44.06,4.6-18.3,13.8-39.17,27.83-59.81,14.07-20.59,33.2-40.73,56.5-57.68,23.31-16.67,47.78-28.88,70.62-37.7,22.87-8.86,44.08-14.65,61.99-18.61,35.87-7.82,58.48-9.33,58.97-6.93Z"/></g><g class="cls-4"><path class="cls-1" d="M700.95,361.46c-3.16,4.09-17.11-1.59-27.31-15.97-10.25-14.34-11.06-29.38-6.16-31.03,5.02-1.79,13.08,8.08,21.66,19.99,8.44,12,15.14,22.85,11.8,27.01Z"/></g></g><g><path class="cls-6" d="M1201.14,478.8c14.65,4.15,13.73,215.85,10.59,323.89-1.68,57.92-6.02,118.31-35.54,168.17-32.89,55.53-95.5,90.95-159.89,95.3-77.48,5.23-154.07-32.27-207.08-89.02-53.01-56.76-84.39-130.95-101.27-206.75-16.88-75.81-20.18-153.88-23.42-231.48,0,0,250.86-135.41,516.61-60.1Z"/><g class="cls-2"><path d="M696.28,641.25c-1.74,68.21,10.3,146.98,32.17,203.95,23.66,61.64,58.08,117.27,115.48,163.7,11.45,9.26,29.91,20.58,50.89,31.91,16.59,8.96,31.59,13.28,48.1,18.02,27.26,7.82,43.29-25.91,48.66-53.76,5.37-27.85-4.69-57.02-21.64-79.76-16.96-22.73-40.25-39.89-64.13-55.2-23.87-15.31-48.78-29.21-70.8-47.09-37.87-30.76-65.82-72.31-86.62-116.45-20.8-44.13-34.86-91.07-48.86-137.81"/></g><path class="cls-1" d="M875.27,930.05c1.76-1.14,4.52,.22,4.69,2.31,.17,2.09-2.32,3.88-4.25,3.05-1.92-.83-2.32-3.88-.68-5.18"/><path class="cls-1" d="M969.09,926.34c1.76-1.14,4.52,.22,4.69,2.31,.17,2.09-2.32,3.88-4.25,3.05-1.92-.83-2.32-3.88-.68-5.18"/><path class="cls-1" d="M1071.59,829.48c1.76-1.14,4.52,.22,4.69,2.31,.17,2.09-2.33,3.88-4.25,3.05-1.92-.83-2.32-3.88-.68-5.18"/><path class="cls-1" d="M1024.49,590.29c1.76-1.14,4.52,.22,4.69,2.31,.17,2.09-2.32,3.88-4.25,3.05-1.92-.83-2.32-3.88-.68-5.18"/><path class="cls-1" d="M1120.55,629.51c1.76-1.14,4.52,.22,4.69,2.31,.17,2.09-2.33,3.88-4.25,3.05-1.92-.83-2.32-3.88-.68-5.18"/><path class="cls-1" d="M768.93,902.35c1.76-1.14,4.52,.22,4.69,2.31,.17,2.09-2.32,3.88-4.25,3.05-1.92-.83-2.32-3.88-.68-5.18"/><path class="cls-1" d="M753.43,822.74c1.76-1.14,4.52,.22,4.69,2.31,.17,2.09-2.32,3.88-4.25,3.05-1.92-.83-2.32-3.88-.68-5.18"/><path class="cls-1" d="M746.67,750.65c1.76-1.14,4.52,.22,4.69,2.31,.17,2.09-2.32,3.88-4.25,3.05-1.92-.83-2.32-3.88-.68-5.18"/><path class="cls-1" d="M739.83,674.05c1.76-1.14,4.52,.22,4.69,2.31,.17,2.09-2.32,3.88-4.25,3.05-1.92-.83-2.32-3.88-.68-5.18"/><path class="cls-1" d="M1177.6,610.79c1.76-1.14,4.52,.22,4.69,2.31,.17,2.09-2.32,3.88-4.25,3.05-1.92-.83-2.32-3.88-.68-5.18"/><path class="cls-1" d="M1087.23,919.13c1.76-1.14,4.52,.22,4.69,2.31,.17,2.09-2.32,3.88-4.25,3.05-1.92-.83-2.32-3.88-.68-5.18"/><path class="cls-1" d="M1097.52,994.73c1.76-1.14,4.52,.22,4.69,2.31,.17,2.09-2.32,3.88-4.25,3.05-1.92-.83-2.32-3.88-.68-5.18"/><g class="cls-4"><path class="cls-1" d="M1142.97,535.75c.73,2.27-21.99,12.39-60.7,22.89-19.33,5.31-42.72,10.29-68.92,14.47-26.24,3.94-55.32,6.95-85.95,8.07-30.65,.94-59.87-.11-86.32-2.28-26.44-2.42-50.1-5.81-69.75-9.81-39.33-7.87-62.67-16.44-62.1-18.76,1.22-5.8,97.38,16.37,217.53,11.82,120.14-3.53,214.62-32.11,216.22-26.41Z"/></g><path class="cls-1" d="M866.52,1024.88c-.09,.1-1.46-.98-3.99-3.13-2.54-2.14-6.2-5.42-10.65-9.91-8.88-8.88-21.36-22.87-30.9-43.62-4.8-10.3-8.62-22.22-12.22-34.94-3.8-12.7-7.56-26.37-11.43-40.77-7.66-28.82-15.16-60.76-21.86-94.52-13.49-67.55-20.64-129.57-24.25-174.51-1.73-22.49-2.69-40.71-3.13-53.31-.15-5.99-.27-10.81-.36-14.51-.04-3.32,0-5.06,.13-5.07,.13,0,.35,1.73,.63,5.04,.27,3.69,.63,8.49,1.07,14.47,.89,12.56,2.27,30.74,4.34,53.15,4.29,44.81,11.85,106.62,25.3,174.01,6.68,33.68,14.06,65.57,21.52,94.37,3.77,14.39,7.4,28.06,11.07,40.78,3.48,12.8,7.07,24.5,11.64,34.71,9.04,20.5,21,34.56,29.51,43.7,4.26,4.61,7.74,8.05,10.1,10.37,2.36,2.33,3.56,3.6,3.47,3.7Z"/><path class="cls-1" d="M1036.7,791.99c1.04-.13,8.91,58.08,17.57,129.99,8.66,71.94,14.83,130.34,13.79,130.46-1.04,.13-8.91-58.07-17.57-130.01-8.66-71.91-14.83-130.32-13.79-130.45Z"/><path class="cls-1" d="M926.66,463.87c.2-.17,2.06,1.71,5.24,5.24,3.18,3.53,7.68,8.72,13.19,15.18,11,12.92,26,30.95,42.39,51,2.05,2.51,4.07,4.99,6.06,7.43l.74,.92c.32,.28,.66,.53,.86,1.15,.23,.52,.44,1.08,.6,1.6l.22,1.22c.34,1.64,.49,3.18,.67,4.73,.65,6.16,.99,12.04,1.29,17.66,.57,11.23,.82,21.34,.98,29.83,.15,8.49,.16,15.36,.1,20.11-.07,4.75-.21,7.37-.47,7.39-.56,.02-1.34-10.46-2.31-27.4-.53-8.79-1.13-18.8-1.79-29.73-.39-5.58-.81-11.45-1.49-17.44-.19-1.49-.36-3.01-.66-4.41l-.2-1.08c-.09-.21-.16-.39-.2-.6,.01-.37-.92-.92-1.28-1.57-2-2.44-4.02-4.92-6.08-7.42-16.38-20.05-31.05-38.34-41.52-51.7-5.24-6.68-9.42-12.13-12.25-15.95-2.83-3.82-4.29-6.01-4.09-6.18Z"/><path class="cls-1" d="M1043.23,902.35c.03,.26-3.23,.92-9.16,1.9-5.93,.99-14.54,2.21-25.21,3.53-21.33,2.66-50.9,5.5-83.66,7.18-32.77,1.65-62.49,1.81-83.98,1.33-10.74-.24-19.43-.57-25.43-.96-6-.37-9.31-.7-9.3-.96,0-.26,3.33-.43,9.34-.52,6.77-.07,15.28-.15,25.41-.25,21.45-.21,51.08-.79,83.77-2.44,32.68-1.67,62.21-4.08,83.57-6.05,10.09-.93,18.57-1.7,25.31-2.32,5.98-.52,9.31-.69,9.34-.43Z"/><path class="cls-1" d="M1212.81,619.94c.13,.23-1.65,1.5-5.01,3.61-3.35,2.12-8.35,4.94-14.7,8.08-12.66,6.37-30.88,13.75-51.62,19.85-20.75,6.11-39.98,9.9-53.97,11.99-14,2.09-22.74,2.61-22.8,2.13-.07-.57,8.53-2.03,22.33-4.79,13.8-2.76,32.78-6.93,53.35-12.99,20.56-6.05,38.72-12.94,51.56-18.64,12.86-5.64,20.55-9.78,20.85-9.25Z"/><g><g><circle class="cls-5" cx="1012.31" cy="708.74" r="85.65" transform="translate(-204.65 923.39) rotate(-45)"/><circle class="cls-1" cx="1012.31" cy="708.74" r="62.42" transform="translate(-189.43 420.82) rotate(-21.52)"/></g><path class="cls-6" d="M1045.53,722.25c-.25-.13-.7-3.8-1.33-10.23-.62-6.43-1.42-15.59-2.25-26.8l.78,1.18c-9.72-4.76-21.04-10.29-33.39-16.34l1.79-.1c-9.64,6.38-20.09,13.3-30.99,20.52-.77,1.52,1.03-2.07,.85-1.69h0v.14l.02,.15,.02,.31,.04,.61,.07,1.22,.14,2.43,.28,4.81c.18,3.19,.36,6.34,.53,9.44,.33,6.19,.66,12.21,.97,18.01l-.99-1.5c12.23,6.3,23.38,12.03,33.05,17.02l-1.41,.08c9.49-6.03,17.31-10.87,22.84-14.21,5.53-3.34,8.74-5.17,8.99-5.04,.25,.12-2.48,2.21-7.7,5.94-5.21,3.72-12.91,9.11-22.58,15.68l-.66,.45-.75-.37c-9.78-4.78-21.04-10.29-33.39-16.34l-.92-.45-.07-1.05c-.36-5.8-.74-11.81-1.13-18-.19-3.1-.38-6.25-.57-9.44l-.29-4.81-.14-2.43-.07-1.22-.04-.61-.02-.3v-.23l-.02-.04v-.02h0c-.19,.36,1.62-3.24,.86-1.72,10.95-7.16,21.44-14.01,31.11-20.34l.88-.58,.91,.47c12.23,6.3,23.43,12.06,33.05,17.02l.74,.38,.03,.8c.51,11.68,.79,21.07,.92,27.47,.12,6.41,.09,9.85-.16,9.72Z"/></g><g class="cls-2"><path d="M684.53,538.91s250.99-137.1,516.61-60.1c0,0-113.68,107.98-516.61,60.1Z"/></g></g><g><path class="cls-6" d="M206.67,468.87s-17.63-72.21-27.04-75.59c-9.41-3.38-122.53,12.8-122.53,12.8,0,0-36.77-51.41-42.43-58.07-5.55-6.52-17.85,10.17-13.92,17.9s30.88,82.56,47.68,85.06c16.81,2.49,58.94-.74,58.94-.74l13.73,47.01,85.56-28.37Z"/><g><path class="cls-6" d="M695.5,748.1c-71.37,25.98-116.95,39.19-188.4,65.81-39.59,14.75-90.04,31.04-127.41,40.64-24.95,6.41-53.48,8.37-77.62-2.15-20.54-8.95-35.63-26.85-49.14-44.71-63.4-83.82-98.65-190.01-123.32-292.17l85.78-16.12,155.11,216.99,281.95-96.45,46.46,114.64c3.93,4.44,2.15,11.49-3.42,13.52Z"/><path class="cls-5" d="M698.39,566.94c-34.38,10.58-61.83,41.05-68.8,76.33-6.97,35.29,6.85,73.9,34.62,96.75,11.68,9.61,28.14,16.98,41.81,2.39,4.31-4.6,7.19-10.39,8.89-16.45,15.24-54.21,9.24-109.44-16.53-159.02Z"/><path class="cls-3" d="M655.12,594.32c-.09-.09,.26-.66,1.05-1.64,.81-.96,2-2.42,4.05-3.86,1.04-.68,2.35-1.41,4.03-1.55,1.77-.07,3.25,.33,5.01,.98,1.72,.66,3.42,2,4.66,3.59,1.18,1.56,2.41,3.17,3.68,4.85,10.43,13.48,21.85,34.89,27.02,60.62,5.17,25.74,3.14,49.89-1.79,66.38-2.62,8.26-6.8,14.28-10.55,17.41-3.74,3.17-6.45,3.86-6.49,3.7-.18-.31,2.25-1.45,5.47-4.77,3.23-3.29,6.8-9.1,8.99-17.13,4.09-16.05,5.69-39.79,.63-64.84-5.05-25.11-15.78-46.15-25.47-59.8-2.49-3.47-4.23-6.96-7.02-8.07-2.91-1.46-5.43-1.38-7.4-.12-3.85,2.38-5.63,4.53-5.88,4.24Z"/><path class="cls-1" d="M370.5,716.39c.26-.03,.7,2.19,1.27,6.28,.67,4.07,.95,10.07,.71,17.45-.26,7.39-1.42,16.2-3.93,25.69-2.63,9.45-6.59,19.57-12.2,29.43-11.41,19.72-26.89,33.86-39.03,42.18-6.1,4.15-11.27,7.18-15.02,8.89-3.71,1.79-5.81,2.66-5.93,2.42-.33-.63,7.78-4.74,19.37-13.49,11.52-8.73,26.24-22.78,37.31-41.91,5.45-9.57,9.37-19.34,12.12-28.48,2.62-9.18,4.02-17.7,4.62-24.92,1.17-14.45-.03-23.49,.71-23.56Z"/><path class="cls-1" d="M638.98,646.32c.37,.98-59.43,24.38-133.54,52.24-74.14,27.87-134.53,49.66-134.9,48.68-.37-.98,59.41-24.37,133.56-52.24,74.12-27.86,134.51-49.66,134.88-48.68Z"/><path class="cls-1" d="M157.53,513.16c.13-.04,.64,1.12,1.51,3.37,.98,2.67,2.18,5.94,3.63,9.89,3.07,8.61,7.57,21.04,13.5,36.26,11.69,30.49,29.27,72.09,51.54,116.65,11.22,22.25,22.55,43.1,33.27,61.84,10.96,18.59,21.03,35.22,30.15,48.76,4.42,6.87,8.63,12.93,12.36,18.23,3.67,5.35,6.87,9.93,9.62,13.58,2.45,3.42,4.47,6.24,6.13,8.56,1.37,1.98,2.04,3.07,1.94,3.15-.1,.08-.97-.84-2.54-2.67-1.81-2.2-4.03-4.88-6.71-8.14-2.93-3.52-6.32-7.98-10.16-13.23-3.91-5.2-8.28-11.18-12.86-17.97-9.44-13.39-19.79-29.94-30.95-48.49-10.92-18.7-22.39-39.58-33.64-61.9-22.35-44.71-39.58-86.61-50.66-117.41-5.61-15.38-9.74-27.97-12.38-36.73-1.18-4.04-2.15-7.38-2.95-10.12-.63-2.33-.91-3.57-.78-3.6Z"/><path class="cls-1" d="M425.98,742.78c1.8-1.06,1.83-4.14,.04-5.23-1.79-1.09-4.51,.34-4.63,2.43s2.43,3.81,4.33,2.93"/><path class="cls-1" d="M306.43,778.08c1.8-1.06,1.83-4.14,.04-5.23-1.79-1.09-4.51,.34-4.63,2.43-.12,2.09,2.43,3.82,4.33,2.93"/><path class="cls-1" d="M252.29,693.23c1.8-1.06,1.83-4.14,.04-5.23-1.79-1.09-4.51,.34-4.63,2.43-.12,2.09,2.43,3.81,4.33,2.93"/><path class="cls-1" d="M496,718.17c1.8-1.06,1.83-4.14,.04-5.23-1.79-1.09-4.51,.34-4.63,2.43s2.43,3.82,4.33,2.93"/><path class="cls-1" d="M575,691.03c1.76-1.14,4.52,.22,4.69,2.31,.17,2.09-2.32,3.88-4.25,3.05-1.92-.83-2.32-3.88-.68-5.18"/></g><path class="cls-5" d="M127.71,516.03c34.92-2.94,52.8-5.27,87.13-12.31,11.47-2.36,24.76-6.54,28.39-17.68,2.62-8.05-1.27-17.15-7.64-22.73-6.37-5.58-14.77-8.23-23.06-9.96-25.47-5.33-52.46-3.23-76.8,5.98-8.69,3.29-17.27,7.63-23.37,14.64-6.1,7-9.29,17.13-6.08,25.84,3.21,8.71,10.85,16.75,21.43,16.23"/><path class="cls-3" d="M239.4,474.9c-.29,.6-7.47-3.16-19.92-6.46-12.36-3.33-30.34-5.61-49.6-2.12-19.27,3.49-35.31,11.94-45.71,19.4-10.5,7.46-15.9,13.5-16.38,13.04-.18-.16,.97-1.84,3.39-4.6,2.42-2.76,6.22-6.51,11.38-10.6,10.22-8.2,26.65-17.37,46.64-20.99,19.98-3.63,38.58-.81,51.03,3.28,6.27,2.02,11.15,4.2,14.38,5.93,3.24,1.73,4.9,2.9,4.79,3.12Z"/></g></g></g></svg>